<svg xmlns="http://www.w3.org/2000/svg" xmlns:xlink="http://www.w3.org/1999/xlink" width="419.674" height="480.916" viewBox="0 0 419.674 480.916">
  <defs>
    <linearGradient id="linear-gradient" x1="0.5" x2="0.5" y2="1" gradientUnits="objectBoundingBox">
      <stop offset="0" stop-color="#fd7201"/>
      <stop offset="1" stop-color="#ff9d4d"/>
    </linearGradient>
  </defs>
  <g id="emptyFolderIcon" transform="translate(-46.163 492.916)">
    <path id="Path_10096" data-name="Path 10096" d="M277.5-491.6c-13.5,4.3-25,15.6-28.5,28-.9,3.4-1.8,4.6-3.2,4.6-3,0-6.8,4.5-6.8,8,0,3.6,3.8,8,6.9,8q2.1,0,2.7,2.7c1.4,5.6,6.5,14.3,11.2,19,12.1,12.1,31.5,15.7,38.7,7.1,4.4-5.3,2.3-14.6-5.5-24.3l-3.2-4,7.2-.5c8.2-.6,11-2.7,11-8.5,0-5.3-3.6-7.5-12.2-7.5h-7l3.6-4.2c4.6-5.3,7.7-11.8,8.3-17.1C301.8-490.1,290.3-495.6,277.5-491.6Z" fill="url(#linear-gradient)"/>
    <path id="Path_10097" data-name="Path 10097" d="M322.5-456.5c-4.8,4.7-2.6,11.3,4.5,13.4,2.5.7,6.5,3.4,10.1,6.7,6.6,6,9.3,6.7,13.4,3.1,5.4-4.6,2.6-12-7.3-19.2-5-3.6-12-6.5-15.9-6.5A8.036,8.036,0,0,0,322.5-456.5Z" fill="url(#linear-gradient)"/>
    <path id="Path_10098" data-name="Path 10098" d="M348.5-420.5c-1.9,1.8-2.5,3.5-2.5,6.7a41.541,41.541,0,0,1-1.6,9.8c-2.9,10-2.9,11.6,0,14.4,3.3,3.4,7.9,3.4,10.9.2,3.1-3.3,5.9-12.6,6.5-21.3.4-6.7.3-7.3-2.1-9.7C356.3-423.8,351.8-423.8,348.5-420.5Z" fill="url(#linear-gradient)"/>
    <path id="Path_10099" data-name="Path 10099" d="M325-381a86.42,86.42,0,0,1-10.2,4.5c-8.2,2.8-10.9,8.6-6.6,14,1.9,2.4,2.6,2.7,6.7,2.3,5.8-.6,21.3-7.7,23.4-10.9,3.5-5,1-11.4-4.8-12.4C331.4-383.8,328.9-383.1,325-381Z" fill="url(#linear-gradient)"/>
    <path id="Path_10100" data-name="Path 10100" d="M229-370.1c-7.3,1.5-10,4.8-8.6,10.6,1.2,4.8,4.5,5.8,15.2,4.7,11.2-1.1,13.8-2.8,13.8-8.8,0-5.4-3-7.4-10.8-7.3A73.726,73.726,0,0,0,229-370.1Z" fill="url(#linear-gradient)"/>
    <path id="Path_10101" data-name="Path 10101" d="M273.8-370.3c-5.8.3-7,.7-8.8,3-2.4,3.1-2.6,6.1-.4,9.1,2.6,3.7,5.9,4.4,17.3,3.6,9.1-.6,10.8-1,12.8-3a7.6,7.6,0,0,0-.3-11.3C291.6-371.1,290.7-371.1,273.8-370.3Z" fill="url(#linear-gradient)"/>
    <path id="Path_10102" data-name="Path 10102" d="M193.7-355.9c-6.7,5-8.5,8.5-6.7,12.9,1.4,3.4,3.7,5,7.2,5,2.3,0,12.1-6.6,14.6-9.8,2-2.6,1.4-7.1-1.3-9.7C203.9-361.2,200.2-360.7,193.7-355.9Z" fill="url(#linear-gradient)"/>
    <path id="Path_10103" data-name="Path 10103" d="M297-346.8a17.43,17.43,0,0,0-6.1,3.4c-1.4,1.3-9.7,13-18.5,25.9C263.7-304.6,256.3-294,256-294s-6.3-8.6-13.4-19.1-13.9-19.7-15-20.5c-3-2-6.1-1.7-9.2.9-4.9,4.3-4.1,6.4,11,28.6,7.6,11.2,13.6,20.4,13.4,20.6-.5.4-46.4,15.5-47.3,15.5-.4,0,.4-.9,1.9-2.1,4-3.2,3.5-7.5-1.9-15.8-2.4-3.9-5.4-7.5-6.5-8.1-4.6-2.5-11,1.4-11,6.8,0,5.6,8.5,17.7,13.2,19,2.6.6-3.9,3-44.2,16.1-39.9,13-47.4,15.2-48.5,14-.7-.8-8.1-11.5-16.4-23.8-10.6-15.8-14.8-22.7-13.9-23.2.7-.4,19.5-6.6,41.8-13.8,44.3-14.3,45.8-15.1,44.6-21.5a7.868,7.868,0,0,0-7.5-6.6c-4.9.1-88.2,27.7-90.8,30.2-4.1,3.8-5.6,7.6-5.1,13.2.4,4.7,1.9,7.3,17.8,30.8l17.4,25.7L66.6-197.8c-13.8,20.6-19.8,30.4-20.3,33.1-.8,5,2,12.1,5.9,14.9,1.7,1.2,10.3,4.4,19.2,7.3l16.1,5.1.5,32.5c.3,22.4.9,33.2,1.7,35.1A35.852,35.852,0,0,0,95-62.6c5,5.4-1.1,3.4,88.1,30.1C226.6-19.5,253.2-12,256-12s30.8-7.9,77.4-21.9c40.2-12.1,74.3-22.4,75.8-23,3.9-1.5,10.3-7.6,12.4-11.9,1.7-3.3,2-7.2,2.4-36.1l.5-32.4,16.1-5.2c8.9-2.8,17.5-6.1,19.2-7.3,3.9-2.8,6.7-9.9,5.9-14.9-.5-2.7-6.5-12.5-20.3-33.1l-19.8-29.3L443-252.8c15.9-23.5,17.4-26.1,17.8-30.8.5-5.6-1-9.4-5.1-13.2-1.6-1.5-12.4-5.5-32.8-12.1-93.5-30.5-116.7-37.9-119.4-38.4A16.339,16.339,0,0,0,297-346.8Zm75.9,38.4c38.3,12.4,70.2,22.9,70.9,23.3.9.5-3.3,7.4-13.9,23.2-8.3,12.3-15.7,23-16.4,23.8-1.1,1.1-9.2-1.3-49.6-14.4-62.3-20.2-94.3-30.7-94.7-31.1-.4-.2,13.4-20.8,26.5-39.7,3-4.2,5.9-7.7,6.5-7.7S334.6-320.8,372.9-308.4ZM356.7-238c17.7,5.8,31.9,10.8,31.5,11.2-.7.6-130.2,42.8-131.5,42.8-.4,0-.7-19.5-.7-43.4v-43.4l34.3,11.2C309.1-253.4,339-243.7,356.7-238ZM171.8-194.1c38.7,12.6,70.5,23.1,70.8,23.3.3.4-33.2,51-36.3,54.7-.3.4-32.1-9.8-124-39.8l-20.2-6.6,16.2-24c20.2-30,20.6-30.5,22-30.5C101-217,133.1-206.7,171.8-194.1Zm259.9,4.6,18.3,27-26.8,8.7C347.4-129,306-115.7,305.7-116.1c-2.8-3.4-36.6-54.3-36.3-54.6,1-1,141.2-46.2,142.6-46C412.8-216.6,421.7-204.3,431.7-189.5ZM255.8-94c-.2,36.3-.6,66-.9,66s-33.6-9.9-74-22c-56.7-17-73.8-22.4-75.1-24.1-1.6-1.9-1.8-4.9-1.8-30,0-21.8.3-27.7,1.3-27.4,25.7,8.9,98,31.5,100.9,31.5,8.4,0,9.6-1.3,32.8-35.8,9-13.3,16.5-24.2,16.7-24.2S255.9-130.3,255.8-94Z" fill="url(#linear-gradient)"/>
    <path id="Path_10104" data-name="Path 10104" d="M175.6-330.7c-2.7,2.7-5.1,14.1-4.1,18.8.8,3.6,4,5.9,8.1,5.9,4.4,0,6.7-3.1,8.1-10.9,1.7-9.5,1.6-10.5-1.2-13.5A7.316,7.316,0,0,0,175.6-330.7Z" fill="url(#linear-gradient)"/>
  </g>
</svg>
